<?xml version="1.0" encoding="UTF-8"?>
<svg width="48px" height="48px" viewBox="0 0 48 48" version="1.1" xmlns="http://www.w3.org/2000/svg" xmlns:xlink="http://www.w3.org/1999/xlink">
    <!-- Generator: Sketch 42 (36781) - http://www.bohemiancoding.com/sketch -->
    <title>cf-logo-48x48</title>
    <desc>Created with Sketch.</desc>
    <defs></defs>
    <g id="Page-1" stroke="none" stroke-width="1" fill="none" fill-rule="evenodd">
        <g id="cf-logo-48x48" fill-rule="nonzero">
            <g id="Group" transform="translate(0.000000, 13.000000)">
                <path d="M43.9157895,13.0864516 L38.2035088,9.58064516 C38.1192982,9.56645161 37.5859649,9.62322581 37.3052632,9.48129032 C37.1087719,9.38193548 36.954386,9.2116129 36.8561404,8.91354839 L12.2245614,8.91354839 L12.2245614,21.9432258 L43.9157895,21.9432258 L43.9157895,13.0864516 L43.9157895,13.0864516 Z" id="flare" fill="#FFFFFF"></path>
                <path d="M37.9789474,9.59483871 C37.8666667,9.59483871 37.7684211,9.68 37.7263158,9.79354839 L37.0526316,12.163871 C36.7578947,13.1858065 36.8701754,14.1225806 37.3614035,14.8180645 C37.8105263,15.4567742 38.5684211,15.8258065 39.4807018,15.8683871 L43.1578947,16.0954839 C43.2701754,16.0954839 43.3684211,16.1522581 43.4245614,16.2374194 C43.4807018,16.3225806 43.4947368,16.4503226 43.4666667,16.5496774 C43.4105263,16.72 43.2421053,16.8477419 43.0596491,16.8619355 L39.2280702,17.0890323 C37.1508772,17.1883871 34.9192982,18.8774194 34.1333333,20.9496774 L33.8526316,21.6735484 C33.7964912,21.8154839 33.8947368,21.9574194 34.0491228,21.9574194 L47.2140351,21.9574194 C47.3684211,21.9574194 47.5087719,21.8580645 47.5508772,21.7019355 C47.7754386,20.8787097 47.9017544,20.0129032 47.9017544,19.1187097 C47.9017544,13.8670968 43.6631579,9.58064516 38.4561404,9.58064516 C38.3017544,9.58064516 38.1333333,9.58064516 37.9789474,9.59483871 Z" id="right-cloud" fill="#FBAE40"></path>
                <path d="M32.954386,20.7793548 C33.2491228,19.7574194 33.1368421,18.8206452 32.645614,18.1251613 C32.1964912,17.4864516 31.4385965,17.1174194 30.5263158,17.0748387 L13.2491228,16.8477419 C13.1368421,16.8477419 13.0385965,16.7909677 12.9824561,16.7058065 C12.9263158,16.6206452 12.9122807,16.5070968 12.9403509,16.3935484 C12.9964912,16.2232258 13.1649123,16.0954839 13.3473684,16.0812903 L30.7789474,15.8541935 C32.8421053,15.7548387 35.0877193,14.0658065 35.8736842,11.9935484 L36.8701754,9.36774194 C36.9122807,9.25419355 36.9263158,9.14064516 36.8982456,9.02709677 C35.7754386,3.88903226 31.2421053,0.0567741935 25.8245614,0.0567741935 C20.8280702,0.0567741935 16.5894737,3.32129032 15.0736842,7.84903226 C14.0912281,7.11096774 12.8421053,6.71354839 11.4947368,6.84129032 C9.09473684,7.08258065 7.17192982,9.02709677 6.93333333,11.4541935 C6.87719298,12.0787097 6.91929825,12.6890323 7.05964912,13.2567742 C3.14385965,13.3703226 0.0140350877,16.6064516 0.0140350877,20.5948387 C0.0140350877,20.9496774 0.0421052632,21.3045161 0.0842105263,21.6593548 C0.112280702,21.8296774 0.252631579,21.9574194 0.421052632,21.9574194 L32.3087719,21.9574194 C32.4912281,21.9574194 32.6596491,21.8296774 32.7157895,21.6451613 L32.954386,20.7793548 Z" id="left-cloud" fill="#F58220"></path>
            </g>
        </g>
    </g>
</svg>