<?xml version="1.0" encoding="UTF-8"?>
<svg width="48px" height="48px" viewBox="0 0 48 48" version="1.1" xmlns="http://www.w3.org/2000/svg" xmlns:xlink="http://www.w3.org/1999/xlink">
    <!-- Generator: Sketch 42 (36781) - http://www.bohemiancoding.com/sketch -->
    <title>cf-logo</title>
    <desc>Created with Sketch.</desc>
    <defs></defs>
    <g id="Page-1" stroke="none" stroke-opacity="0" stroke-width="1" fill="none" fill-rule="evenodd">
        <g id="cf-logo" transform="translate(0.000000, -9.000000)">
            <rect id="Rectangle" x="0" y="0" width="48" height="48" fill="none"></rect>
            <path d="M43.9157895,22.0864516 L38.2035088,18.5806452 C38.1192982,18.5664516 37.5859649,18.6232258 37.3052632,18.4812903 C37.1087719,18.3819355 36.954386,18.2116129 36.8561404,17.9135484 L12.2245614,17.9135484 L12.2245614,30.9432258 L43.9157895,30.9432258 L43.9157895,22.0864516 L43.9157895,22.0864516 Z" id="flare" fill="#FFFFFF" fill-rule="nonzero"></path>
            <path d="M37.9789474,18.5948387 C37.8666667,18.5948387 37.7684211,18.68 37.7263158,18.7935484 L37.0526316,21.163871 C36.7578947,22.1858065 36.8701754,23.1225806 37.3614035,23.8180645 C37.8105263,24.4567742 38.5684211,24.8258065 39.4807018,24.8683871 L43.1578947,25.0954839 C43.2701754,25.0954839 43.3684211,25.1522581 43.4245614,25.2374194 C43.4807018,25.3225806 43.4947368,25.4503226 43.4666667,25.5496774 C43.4105263,25.72 43.2421053,25.8477419 43.0596491,25.8619355 L39.2280702,26.0890323 C37.1508772,26.1883871 34.9192982,27.8774194 34.1333333,29.9496774 L33.8526316,30.6735484 C33.7964912,30.8154839 33.8947368,30.9574194 34.0491228,30.9574194 L47.2140351,30.9574194 C47.3684211,30.9574194 47.5087719,30.8580645 47.5508772,30.7019355 C47.7754386,29.8787097 47.9017544,29.0129032 47.9017544,28.1187097 C47.9017544,22.8670968 43.6631579,18.5806452 38.4561404,18.5806452 C38.3017544,18.5806452 38.1333333,18.5806452 37.9789474,18.5948387 Z" id="right-cloud" fill="#FBAE40" fill-rule="nonzero"></path>
            <path d="M32.954386,29.7793548 C33.2491228,28.7574194 33.1368421,27.8206452 32.645614,27.1251613 C32.1964912,26.4864516 31.4385965,26.1174194 30.5263158,26.0748387 L13.2491228,25.8477419 C13.1368421,25.8477419 13.0385965,25.7909677 12.9824561,25.7058065 C12.9263158,25.6206452 12.9122807,25.5070968 12.9403509,25.3935484 C12.9964912,25.2232258 13.1649123,25.0954839 13.3473684,25.0812903 L30.7789474,24.8541935 C32.8421053,24.7548387 35.0877193,23.0658065 35.8736842,20.9935484 L36.8701754,18.3677419 C36.9122807,18.2541936 36.9263158,18.1406452 36.8982456,18.0270968 C35.7754386,12.8890323 31.2421053,9.05677419 25.8245614,9.05677419 C20.8280702,9.05677419 16.5894737,12.3212903 15.0736842,16.8490323 C14.0912281,16.1109677 12.8421053,15.7135484 11.4947368,15.8412903 C9.09473684,16.0825807 7.17192982,18.0270968 6.93333333,20.4541935 C6.87719298,21.0787097 6.91929825,21.6890323 7.05964912,22.2567742 C3.14385965,22.3703226 0.0140350877,25.6064516 0.0140350877,29.5948387 C0.0140350877,29.9496774 0.0421052632,30.3045161 0.0842105263,30.6593548 C0.112280702,30.8296774 0.252631579,30.9574194 0.421052632,30.9574194 L32.3087719,30.9574194 C32.4912281,30.9574194 32.6596491,30.8296774 32.7157895,30.6451613 L32.954386,29.7793548 Z" id="left-cloud" fill="#F58220" fill-rule="nonzero"></path>
        </g>
    </g>
</svg>